PathFileType	4	(X/Y/Z)	C:/Users/beibeiliu/ov580/test_trc/capture2\sequence.6_training_dense_left.trc
DataRate	CameraRate	NumFrames	NumMarkers	Units	OrigDataRate	OrigDataStartFrame	OrigNumFrames
120	120	9	19	mm	120	221	353
Frame#	Time	ThumbCMC			ThumbMCP			ThumbIP			ThumbTip			IndexMCP			IndexPIP			IndexTip			MiddleMCP			MiddlePIP			MiddleTip			RingMCP			RingPIP			RingTip			PinkyMCP			PinkyPIP			PinkyTip			BackHand1			BackHand2			BackHand3	
		X0	Y0	Z0	X1	Y1	Z1	X2	Y2	Z2	X3	Y3	Z3	X4	Y4	Z4	X5	Y5	Z5	X6	Y6	Z6	X7	Y7	Z7	X8	Y8	Z8	X9	Y9	Z9	X10	Y10	Z10	X11	Y11	Z11	X12	Y12	Z12	X13	Y13	Z13	X14	Y14	Z14	X15	Y15	Z15	X16	Y16	Z16	X17	Y17	Z17	X18	Y18	Z18	
220	1.83333	-144.322	84.0489	-49.6985	-121.681	80.924	-75.7284	-113.032	74.2297	-102.534	-120.281	50.802	-118.842	-180.756	74.6262	-112.088	-183.399	75.0739	-139.713	-186.631	73.3997	-162.253	-159.581	53.3491	-116.7	-126.559	50.5623	-116.546	-129.552	57.9026	-78.397	-147.958	32.4817	-109.599	-123.12	35.2572	-94.5406	-132.827	47.4305	-65.2909	-146.766	18.1818	-98.0975	-125.652	27.1639	-82.4669	-141.315	43.2854	-57.0611	-186.024	32.9601	-65.7547	-182.869	39.87	-35.1842	-182.471	68.7081	-52.2771	
221	1.84167	-144.624	85.4218	-49.0749	-122.079	80.7655	-77.6825	-115.566	72.115	-105.222	-120.98	50.5631	-121.2	-182.167	73.5811	-110.556	-184.426	73.6953	-136.671	-184.676	70.6004	-164.029	-160.969	53.7907	-118.258	-128.14	48.0251	-114.996	-131.925	56.5858	-77.3207	-151.825	35.6137	-108.83	-124.556	37.2357	-94.8215	-135.637	47.2195	-63.1013	-150.154	21.9577	-97.9553	-126.954	27.5641	-82.3153	-141.389	40.0643	-54.4866	-186.651	36.2329	-65.5388	-185.411	36.5257	-28.5706	-183.62	70.4464	-51.9313	
222	1.85	-146.23	84.4457	-49.5171	-124.218	80.9932	-78.798	-118.793	73.3668	-106.564	-125.186	49.2202	-122.136	-184.473	76.2739	-108.279	-185.95	75.6698	-135.916	-181.87	70.8259	-162.748	-164.564	54.1415	-115.719	-130.001	51.8374	-115.169	-133.686	57.0815	-77.8425	-152.821	37.1051	-109.792	-125.665	38.1361	-96.8176	-134.704	46.2602	-64.542	-155.15	20.3014	-95.4552	-127.308	29.0561	-80.7728	-141.643	40.7557	-53.542	-187.914	34.2559	-63.8041	-183.214	38.9229	-30.2143	-183.269	66.4617	-46.9445	
223	1.85833	-147.465	86.3312	-48.8141	-125.615	81.9095	-73.4003	-123.232	73.8649	-100.966	-126.311	54.7833	-121.898	-188.124	75.4226	-107.497	-188.832	71.1479	-135.893	-174.574	65.3131	-162.564	-165.568	51.3186	-115.851	-134.275	53.6221	-118.088	-133.944	60.9313	-78.9083	-156.719	38.3201	-108.384	-127.464	41.4536	-95.592	-134.884	49.8354	-67.1824	-152.521	24.0012	-97.8744	-129.459	33.1852	-83.9495	-139.952	42.5949	-54.0998	-189.924	37.7637	-61.6526	-185.924	34.5342	-30.3854	-183.563	65.732	-46.5143	
224	1.86667	-149.504	84.8739	-48.4938	-131.502	80.7525	-76.7113	-122.024	79.3022	-102.802	-128.153	58.0791	-122.09	-191.23	75.2635	-106.952	-187.954	70.4035	-137.937	-163.525	67.9038	-156.864	-167.423	52.7209	-117.039	-135.287	52.5863	-116.149	-135.666	63.2453	-80.3937	-159.886	36.8694	-105.601	-127.676	41.21	-95.9742	-135.974	51.8409	-66.746	-153.332	21.5479	-98.0075	-128.205	30.9127	-84.0362	-138.362	45.2342	-53.9847	-189.599	33.8355	-58.5863	-185.621	36.0835	-26.594	-186.288	68.9755	-46.5856	
225	1.875	-150.251	88.1008	-47.2272	-130.232	87.6816	-75.104	-126.969	79.5308	-98.0769	-132.127	58.2424	-122.488	-193.399	73.0013	-108.199	-185.961	72.6946	-137.819	-159.216	64.5666	-148.065	-172.365	56.363	-113.313	-139.322	52.8816	-118.063	-136.415	62.0732	-82.86	-157.288	36.8822	-108.676	-130.495	46.8881	-98.3336	-136.256	51.7288	-66.9904	-154.423	26.2241	-96.5889	-130.108	34.016	-84.3517	-137.122	45.518	-53.2139	-190.645	35.0466	-57.3224	-182.042	36.8957	-24.6363	-185.749	68.4583	-44.499	
226	1.88333	-150.416	88.6491	-47.6249	-132.272	83.7944	-74.4475	-125.71	81.5227	-104.264	-133.083	58.2285	-121.452	-191.594	74.7344	-105.32	-185.641	71.21	-136.702	-156.607	67.9583	-146.114	-170.952	56.9747	-114.799	-137.939	56.4366	-116.227	-138.086	63.9426	-81.0659	-158.272	41.4768	-107.982	-130.561	44.0167	-97.3411	-139.105	54.6896	-65.4175	-153.249	23.9885	-97.5527	-129.064	33.0297	-83.0212	-136.324	47.0609	-57.4423	-190.121	32.9258	-60.1044	-183.965	39.1689	-27.2639	-186.106	66.8112	-42.2128	
227	1.89167	-150.827	85.169	-44.9399	-132.864	84.3381	-73.0218	-127.2	78.5283	-99.9453	-132.291	58.0892	-118.131	-191.13	75.0257	-103.873	-189.194	73.2947	-135.039	-157.011	69.5045	-148.04	-169.739	58.3159	-114.717	-136.502	58.8545	-115.842	-136.722	64.6914	-79.6012	-156.518	37.5812	-108.943	-129.357	46.6349	-96.763	-139.273	53.5325	-63.8844	-156.79	24.8167	-94.8368	-129.834	31.7709	-85.5945	-133.864	43.8776	-54.2852	-192.137	37.7699	-60.7252	-183.248	36.7161	-27.3474	-188.444	70.7603	-44.912	
228	1.9	-151.658	86.7936	-44.9339	-131.581	85.4747	-70.6425	-125.656	79.0005	-98.1309	-128.668	60.7001	-121.297	-191.842	73.5532	-107.46	-190.315	73.0277	-135.281	-164.437	71.0301	-157.21	-167.734	56.6229	-115.472	-136.104	56.8031	-114.923	-135.945	61.7297	-80.4893	-158.854	35.4665	-105.404	-129.499	47.0061	-96.9738	-135.592	54.076	-67.4133	-154.789	22.0499	-94.9928	-127.623	34.8411	-81.3444	-139.731	47.8302	-56.1661	-190.402	34.1551	-59.7018	-185.055	37.8125	-27.5835	-187.122	69.5516	-43.0981	
